<svg width="366" height="154" viewBox="0 0 366 154" fill="none" xmlns="http://www.w3.org/2000/svg">
<path d="M41.4224 20H15V120H57V100.206H41.4224V20Z" fill="black"/>
<path d="M197 120V20H223V120H197Z" fill="black"/>
<path d="M89.1553 20H63.0445V96.6402C62.4511 104.894 67.5545 121.519 92.7158 121.99C117.877 122.462 123.376 105.287 122.981 96.6402V20H96.8698V100.767C96.8698 102.536 96.2764 105.483 92.7158 105.483C89.8674 105.483 89.1553 102.339 89.1553 100.767V20Z" fill="black"/>
<path d="M317.155 20H291.045V96.6402C290.451 104.894 295.555 121.519 320.716 121.99C345.877 122.462 351.376 105.287 350.981 96.6402V20H324.87V100.767C324.87 102.536 324.276 105.483 320.716 105.483C317.867 105.483 317.155 102.339 317.155 100.767V20Z" fill="black"/>
<path fill-rule="evenodd" clip-rule="evenodd" d="M285.237 20H228.778V39.9958H243.951V119.969H270.416V39.9958H285.237V20Z" fill="black"/>
<path fill-rule="evenodd" clip-rule="evenodd" d="M156.91 20.247C161.811 20.247 172.79 20.7175 177.494 22.5995C183.376 24.9519 188.669 30.2449 189.257 42.0072C189.727 51.417 189.453 59.2585 189.257 62.003C189.257 67.8841 185.493 79.6464 170.437 79.6464H159.263V119.638H132.798V20.247H156.91ZM159.263 36.7142V62.5911C162.007 63.3753 167.497 63.2969 167.497 56.71V42.0072C167.497 40.2428 165.85 36.7142 159.263 36.7142Z" fill="black"/>
</svg>
